<?xml version="1.0" encoding="UTF-8" standalone="no"?>
<!DOCTYPE svg PUBLIC "-//W3C//DTD SVG 1.1//EN" "http://www.w3.org/Graphics/SVG/1.1/DTD/svg11.dtd">
<svg xmlns="http://www.w3.org/2000/svg" version="1.1" viewBox="0.00 0.00 33.00 41.00">
<path stroke="#fec56c" stroke-width="2.00" fill="none" stroke-linecap="butt" vector-effect="non-scaling-stroke" d="
  M 19.62 10.08
  L 19.11 11.07
  Q 18.87 11.53 18.35 11.53
  Q 10.66 11.45 3.62 18.08"
/>
<ellipse fill="#fe9804" cx="0.00" cy="0.00" transform="translate(13.26,4.75) rotate(55.0)" rx="3.70" ry="1.87"/>
<path fill="#fe9804" d="
  M 26.16 4.21
  L 23.74 7.10
  A 1.28 1.28 0.0 0 1 22.95 7.54
  L 18.87 8.17
  A 1.28 1.28 0.0 0 1 17.58 6.24
  L 19.32 3.37
  A 1.28 1.28 0.0 0 1 20.25 2.77
  L 25.00 2.12
  A 1.28 1.28 0.0 0 1 26.16 4.21
  Z"
/>
<path fill="#fefed6" d="
  M 19.62 10.08
  L 19.11 11.07
  Q 18.87 11.53 18.35 11.53
  Q 10.66 11.45 3.62 18.08
  Q 8.13 8.59 19.62 10.08
  Z"
/>
<path fill="#fe8c01" d="
  M 19.62 10.08
  Q 26.57 11.77 29.62 18.12
  Q 32.70 24.54 29.48 31.06
  Q 26.33 37.43 18.05 39.12
  Q 17.39 39.26 17.62 38.63
  Q 18.14 37.20 19.39 36.10
  C 23.42 32.58 29.69 27.59 28.56 21.41
  Q 28.44 20.80 27.88 20.53
  Q 27.54 20.37 27.17 20.43
  Q 26.72 20.50 26.67 20.95
  C 26.53 22.30 26.82 23.67 26.37 24.97
  Q 25.09 28.64 22.12 31.07
  Q 17.69 34.69 15.64 38.11
  Q 15.03 39.13 13.89 38.80
  L 11.58 38.12
  Q 10.43 37.79 11.43 37.13
  Q 17.44 33.19 21.95 28.04
  Q 23.30 26.51 23.86 24.25
  A 1.22 1.22 0.0 0 0 23.68 23.29
  Q 23.47 22.99 23.11 22.98
  Q 22.51 22.95 22.30 23.50
  C 20.51 28.16 14.25 33.30 9.39 36.14
  A 1.38 1.38 0.0 0 1 7.77 35.98
  L 5.82 34.22
  Q 5.25 33.71 6.00 33.58
  Q 12.89 32.40 17.22 26.41
  A 0.93 0.93 0.0 0 0 17.03 25.13
  L 16.79 24.94
  A 0.57 0.57 0.0 0 0 15.98 25.05
  Q 11.87 30.45 5.85 31.71
  Q 4.11 32.07 3.37 30.46
  L 2.87 29.36
  Q 2.25 28.01 3.73 28.12
  Q 8.49 28.49 11.05 25.85
  A 0.67 0.67 0.0 0 0 10.81 24.76
  Q 9.99 24.44 9.29 24.96
  C 7.45 26.32 4.63 26.56 2.59 25.91
  Q 2.06 25.74 2.01 25.19
  Q 1.57 20.57 3.62 18.08
  Q 10.66 11.45 18.35 11.53
  Q 18.87 11.53 19.11 11.07
  L 19.62 10.08
  Z"
/>
</svg>
